# xmcd
#
# Track frame offsets:
# 150
# 16957
# 33099
# 50703
# 68534
# 85676
# 115417
# 140764
# 154103
# 165775
# 189098
# 212515
# 229510
# 244686
# 258250
# 280820
#
# Disc length: 3921 seconds
#
# Revision: 0
# Processed by: cddbd v1.4PL0 Copyright (c) Steve Scherf et al.
# Submitted via: MacMP3 Pro 5.0 (http://mp3.act2.co.jp/)
#
DISCID=c40f4f10
DTITLE=so many - Ûm‰y…A…Â…Ï…W
DYEAR=1900
DGENRE=
TTITLE0=As Long As You Love Me
TTITLE1=I Want It That Way
TTITLE2=Larger Then Life
TTITLE3=show me the meaning of being lonely
TTITLE4=It's my life
TTITLE5=Bed Of Rose
TTITLE6=blaze of glory
TTITLE7=Every day
TTITLE8=Living On A Player
TTITLE9=thank you for loving me
TTITLE10=Wanted Dead Or Alive
TTITLE11=You Give Love A Bad Name
TTITLE12=Isn't She Lovey
TTITLE13=Stand By Me
TTITLE14=I Don't Want To Miss a Thing
TTITLE15=THEME FROM SPIDER MAN
EXTD=
EXTT0=
EXTT1=
EXTT2=
EXTT3=
EXTT4=
EXTT5=
EXTT6=
EXTT7=
EXTT8=
EXTT9=
EXTT10=
EXTT11=
EXTT12=
EXTT13=
EXTT14=
EXTT15=
PLAYORDER=
